<?xml version="1.0" encoding="utf-8"?>
<!-- Generator: Adobe Illustrator 15.1.0, SVG Export Plug-In . SVG Version: 6.00 Build 0)  -->
<!DOCTYPE svg PUBLIC "-//W3C//DTD SVG 1.1//EN" "http://www.w3.org/Graphics/SVG/1.1/DTD/svg11.dtd">
<svg version="1.1" id="Layer_2" xmlns="http://www.w3.org/2000/svg" xmlns:xlink="http://www.w3.org/1999/xlink" x="0px" y="0px"
	 width="512.499px" height="549.666px" viewBox="0 0 512.499 549.666" enable-background="new 0 0 512.499 549.666"
	 xml:space="preserve">
<line fill="none" stroke="#999999" stroke-miterlimit="10" x1="108.166" y1="3.999" x2="108.166" y2="486.999"/>
<line fill="none" stroke="#999999" stroke-miterlimit="10" x1="143.166" y1="3.999" x2="143.166" y2="486.999"/>
<line fill="none" stroke="#999999" stroke-miterlimit="10" x1="178.166" y1="3.999" x2="178.166" y2="486.999"/>
<line fill="none" stroke="#999999" stroke-miterlimit="10" x1="213.166" y1="3.999" x2="213.166" y2="486.999"/>
<line fill="none" stroke="#999999" stroke-miterlimit="10" x1="248.166" y1="3.999" x2="248.166" y2="486.999"/>
<line fill="none" stroke="#999999" stroke-miterlimit="10" x1="283.166" y1="3.999" x2="283.166" y2="486.999"/>
<line fill="none" stroke="#999999" stroke-miterlimit="10" x1="319.166" y1="3.999" x2="319.166" y2="486.999"/>
<line fill="none" stroke="#999999" stroke-miterlimit="10" x1="354.166" y1="3.999" x2="354.166" y2="486.999"/>
<line fill="none" stroke="#999999" stroke-miterlimit="10" x1="389.166" y1="3.999" x2="389.166" y2="486.999"/>
<line fill="none" stroke="#999999" stroke-miterlimit="10" x1="424.166" y1="3.999" x2="424.166" y2="486.999"/>
<line fill="none" stroke="#999999" stroke-miterlimit="10" x1="459.166" y1="3.999" x2="459.166" y2="486.999"/>
<line fill="none" stroke="#999999" stroke-miterlimit="10" x1="74.666" y1="437.499" x2="493.666" y2="437.499"/>
<line fill="none" stroke="#999999" stroke-miterlimit="10" x1="74.666" y1="389.499" x2="493.666" y2="389.499"/>
<line fill="none" stroke="#999999" stroke-miterlimit="10" x1="74.666" y1="340.499" x2="493.666" y2="340.499"/>
<line fill="none" stroke="#999999" stroke-miterlimit="10" x1="74.666" y1="292.499" x2="493.666" y2="292.499"/>
<line fill="none" stroke="#999999" stroke-miterlimit="10" x1="74.666" y1="244.499" x2="493.666" y2="244.499"/>
<line fill="none" stroke="#999999" stroke-miterlimit="10" x1="74.666" y1="195.499" x2="493.666" y2="195.499"/>
<line fill="none" stroke="#999999" stroke-miterlimit="10" x1="74.666" y1="147.499" x2="493.666" y2="147.499"/>
<line fill="none" stroke="#999999" stroke-miterlimit="10" x1="74.666" y1="98.499" x2="493.666" y2="98.499"/>
<line fill="none" stroke="#999999" stroke-miterlimit="10" x1="73.666" y1="49.499" x2="493.666" y2="49.499"/>
<rect x="25.665" y="0" fill="none" width="42.833" height="498.333"/>
<text transform="matrix(1 0 0 1 28.4556 15.4556)"><tspan x="0" y="0" font-family="'Helvetica'" font-size="18">1000</tspan><tspan x="10.011" y="47.6" font-family="'Helvetica'" font-size="18">900</tspan><tspan x="10.011" y="95.2" font-family="'Helvetica'" font-size="18">800</tspan><tspan x="10.011" y="142.8" font-family="'Helvetica'" font-size="18">700</tspan><tspan x="10.011" y="190.4" font-family="'Helvetica'" font-size="18">600</tspan><tspan x="10.011" y="238" font-family="'Helvetica'" font-size="18">500</tspan><tspan x="10.011" y="285.6" font-family="'Helvetica'" font-size="18">400</tspan><tspan x="10.011" y="333.201" font-family="'Helvetica'" font-size="18">300</tspan><tspan x="10.011" y="380.8" font-family="'Helvetica'" font-size="18">200</tspan><tspan x="10.011" y="428.401" font-family="'Helvetica'" font-size="18">100</tspan><tspan x="30.032" y="476" font-family="'Helvetica'" font-size="18">0</tspan></text>
<rect x="70" y="490.499" fill="none" width="11.667" height="17.5"/>
<text transform="matrix(1 0 0 1 69.9995 505.9541)" font-family="'Helvetica'" font-size="18">0</text>
<rect x="132.847" y="490.499" fill="none" width="26.251" height="20.992"/>
<text transform="matrix(1 0 0 1 132.8467 505.9541)" font-family="'Helvetica'" font-size="18">20</text>
<rect x="202.986" y="490.499" fill="none" width="26.251" height="20.991"/>
<text transform="matrix(1 0 0 1 202.9863 505.9541)" font-family="'Helvetica'" font-size="18">40</text>
<rect x="273.127" y="490.499" fill="none" width="26.25" height="20.992"/>
<text transform="matrix(1 0 0 1 273.127 505.9541)" font-family="'Helvetica'" font-size="18">60</text>
<rect x="218.129" y="515.499" fill="none" width="158.749" height="20.992"/>
<text transform="matrix(1 0 0 1 218.1289 532.6719)" font-family="'Helvetica'" font-size="20">Temperature (°C)</text>
<rect x="344.267" y="490.499" fill="none" width="26.251" height="20.991"/>
<text transform="matrix(1 0 0 1 344.2666 505.9541)" font-family="'Helvetica'" font-size="18">80</text>
<rect x="409.4" y="490.499" fill="none" width="31.252" height="20.992"/>
<text transform="matrix(1 0 0 1 409.4014 505.9541)" font-family="'Helvetica'" font-size="18">100</text>
<rect x="478.54" y="490.499" fill="none" width="32.083" height="20.992"/>
<text transform="matrix(1 0 0 1 478.541 505.9541)" font-family="'Helvetica'" font-size="18">120</text>
<rect y="190.082" fill="none" width="46.248" height="100.417"/>
<text transform="matrix(-4.371139e-08 -1 1 -4.371139e-08 17.1733 290.499)"><tspan x="0" y="0" font-family="'Helvetica-Oblique'" font-size="20" letter-spacing="-4">P</tspan><tspan x="9.34" y="6" font-family="'Helvetica'" font-size="16">vap</tspan><tspan x="35.137" y="0" font-family="'Helvetica'" font-size="20"> (torr)</tspan></text>
<path fill="none" stroke="#00A99D" stroke-width="5" stroke-miterlimit="10" d="M74.166,392.999
	c36.667-47.5,135-249.167,143.333-387.5"/>
<path fill="none" stroke="#93278F" stroke-width="5" stroke-miterlimit="10" d="M74.166,481.999
	c162.5-31.5,254.167-184,295.833-477.333"/>
<path fill="none" stroke="#0000FF" stroke-width="5" stroke-miterlimit="10" d="M75,484.666
	c299.167-4.167,329.167-275,371.667-479.167"/>
<rect x="73.666" y="3.999" fill="none" stroke="#000000" stroke-width="2" stroke-miterlimit="10" width="421" height="484"/>
<rect x="117.499" y="154.666" fill="none" width="63.333" height="65"/>
<text transform="matrix(1 0 0 1 117.499 176.1216)"><tspan x="0" y="0" font-family="'Helvetica'" font-size="18">diethyl</tspan><tspan x="0" y="16.6" font-family="'Helvetica'" font-size="18">ether</tspan></text>
<rect x="250.833" y="209.666" fill="none" width="67.499" height="30"/>
<text transform="matrix(1 0 0 1 250.833 231.1211)" font-family="'Helvetica'" font-size="18">ethanol</text>
<rect x="0.833" y="105.499" fill="none" width="67.499" height="30"/>
<text transform="matrix(1 0 0 1 0.8325 126.9761)" font-family="'Helvetica-Bold'" font-size="18">760</text>
<rect x="393.333" y="244.666" fill="none" width="63.332" height="30.833"/>
<text transform="matrix(1 0 0 1 393.333 266.1211)" font-family="'Helvetica'" font-size="18">water</text>
<g>
	<g>
		<line fill="none" stroke="#FF0000" stroke-width="2" stroke-miterlimit="10" x1="73.666" y1="119.999" x2="77.666" y2="119.999"/>
		
			<line fill="none" stroke="#FF0000" stroke-width="2" stroke-miterlimit="10" stroke-dasharray="8,8" x1="86.666" y1="119.999" x2="486.666" y2="119.999"/>
		
			<line fill="none" stroke="#FF0000" stroke-width="2" stroke-miterlimit="10" x1="490.666" y1="119.999" x2="494.666" y2="119.999"/>
	</g>
</g>
<rect x="357.499" y="119.666" fill="none" width="40" height="33.333"/>
<text transform="matrix(1 0 0 1 357.498 139.4233)" font-family="'Helvetica-Bold'" font-size="16">78°</text>
<rect x="201.666" y="119.331" fill="none" width="40" height="33.333"/>
<text transform="matrix(1 0 0 1 201.6655 139.0889)" font-family="'Helvetica-Bold'" font-size="16">35°</text>
<rect x="426.666" y="117.166" fill="none" width="40" height="33.333"/>
<text transform="matrix(1 0 0 1 426.666 136.9238)" font-family="'Helvetica-Bold'" font-size="16">100°</text>
<circle cx="195.583" cy="120.082" r="5.417"/>
<circle cx="349.583" cy="120.082" r="5.417"/>
<circle cx="423.583" cy="120.082" r="5.417"/>
<g>
	<g>
		<line fill="none" stroke="#000000" stroke-width="3" stroke-miterlimit="10" x1="44.666" y1="120.499" x2="62.666" y2="120.499"/>
		<g>
			<path d="M61.046,120.666l-1.972-3.243l0.111-0.073l5.288,2.1c1.842,0.405,3.684,0.81,5.526,1.216
				c-1.842,0.405-3.685,0.811-5.526,1.216l-5.288,2.1l-0.111-0.055L61.046,120.666z"/>
		</g>
	</g>
</g>
<g>
	<g>
		<line fill="none" stroke="#000000" stroke-width="3" stroke-miterlimit="10" x1="35.833" y1="120.499" x2="62.662" y2="120.63"/>
		<g>
			<path d="M61.046,120.622l-1.956-3.252l0.111-0.073l5.277,2.126c1.84,0.414,3.68,0.828,5.521,1.243
				c-1.844,0.396-3.688,0.792-5.532,1.189l-5.298,2.074l-0.11-0.056L61.046,120.622z"/>
		</g>
	</g>
</g>
<rect x="437.499" y="528" fill="none" width="75" height="21.666"/>
<text transform="matrix(1 0 0 1 437.499 542.5869)" font-family="'Helvetica'" font-size="10">© mccord 2013</text>
</svg>
